<svg xmlns="http://www.w3.org/2000/svg" width="1600" height="1000" viewBox="0 0 1600 1000" preserveAspectRatio="xMidYMid slice">
  <defs>
    <linearGradient id="sage" x1="0" y1="0" x2="0.3" y2="1">
      <stop offset="0" stop-color="#5d7a62"/>
      <stop offset="0.55" stop-color="#87a07c"/>
      <stop offset="1" stop-color="#c98a4b"/>
    </linearGradient>
    <linearGradient id="sage2" x1="0" y1="0" x2="0" y2="1">
      <stop offset="0" stop-color="#4c6a55"/>
      <stop offset="1" stop-color="#7d9873"/>
    </linearGradient>
    <radialGradient id="ember" cx="0.5" cy="0.95" r="0.75">
      <stop offset="0" stop-color="#e07a35"/>
      <stop offset="0.45" stop-color="#c9803f" stop-opacity="0.55"/>
      <stop offset="1" stop-color="#c9803f" stop-opacity="0"/>
    </radialGradient>
    <linearGradient id="pebble" x1="0" y1="0" x2="0.8" y2="1">
      <stop offset="0" stop-color="#8fae8a"/>
      <stop offset="1" stop-color="#d08a4e"/>
    </linearGradient>
    <linearGradient id="pebble2" x1="0" y1="0" x2="0.6" y2="1">
      <stop offset="0" stop-color="#9db794"/>
      <stop offset="1" stop-color="#6d8b6c"/>
    </linearGradient>
    <filter id="grain">
      <feTurbulence type="fractalNoise" baseFrequency="0.9" numOctaves="2" result="n"/>
      <feColorMatrix in="n" type="matrix" values="0 0 0 0 1  0 0 0 0 1  0 0 0 0 1  0 0 0 0.05 0"/>
      <feComposite operator="over" in2="SourceGraphic"/>
    </filter>
    <filter id="soft" x="-20%" y="-20%" width="140%" height="140%">
      <feGaussianBlur stdDeviation="6"/>
    </filter>
  </defs>

  <!-- ground -->
  <rect width="1600" height="1000" fill="#0c1713"/>

  <!-- deep back waves -->
  <path d="M-50 0 C 250 150 150 420 420 520 C 640 600 560 820 760 1010 L -50 1010 Z" fill="#173026"/>
  <path d="M1650 -20 C 1350 60 1420 300 1180 380 C 950 455 1040 700 860 1010 L 1650 1010 Z" fill="#14271f"/>
  <path d="M620 -20 C 700 180 520 320 610 520 C 690 690 560 840 640 1010 L 900 1010 C 830 820 960 660 880 470 C 810 300 950 140 880 -20 Z" fill="#0f1f19"/>

  <!-- mid layer, cooler green -->
  <path d="M-50 -20 C 320 40 200 260 470 350 C 700 425 640 640 830 1010 L 560 1010 C 430 780 520 610 330 520 C 120 420 210 160 -50 120 Z" fill="#1d3a2c" filter="url(#soft)"/>
  <path d="M1650 120 C 1330 160 1400 400 1150 480 C 930 550 1010 780 900 1010 L 1240 1010 C 1300 800 1220 640 1400 560 C 1580 480 1520 260 1650 260 Z" fill="#20402f"/>

  <!-- sage channels (the light rivers) -->
  <path d="M-50 260 C 260 300 180 470 420 560 C 660 650 560 830 700 1010 L 460 1010 C 350 830 430 690 240 620 C 40 545 120 380 -50 360 Z" fill="url(#sage2)"/>
  <path d="M700 1010 C 690 830 830 760 800 600 C 775 470 900 420 900 300 C 900 180 800 120 810 -20 L 1000 -20 C 990 130 1090 190 1080 320 C 1070 450 950 510 970 640 C 990 790 860 860 880 1010 Z" fill="url(#sage)"/>
  <path d="M1650 620 C 1430 640 1360 760 1160 780 C 1000 795 940 900 920 1010 L 1650 1010 Z" fill="#33523c" opacity="0.85"/>

  <!-- ember bloom -->
  <rect width="1600" height="1000" fill="url(#ember)" opacity="0.8"/>

  <!-- pebbles -->
  <ellipse cx="258" cy="242" rx="86" ry="96" fill="url(#pebble2)" transform="rotate(-18 258 242)"/>
  <ellipse cx="655" cy="272" rx="44" ry="50" fill="url(#pebble)"/>
  <ellipse cx="822" cy="690" rx="86" ry="86" fill="url(#pebble)"/>
  <ellipse cx="1198" cy="668" rx="76" ry="52" fill="url(#pebble)" transform="rotate(-14 1198 668)"/>
  <ellipse cx="1352" cy="205" rx="46" ry="42" fill="url(#pebble2)"/>
  <ellipse cx="172" cy="730" rx="44" ry="52" fill="url(#pebble)" opacity="0.9"/>

  <!-- grain -->
  <rect width="1600" height="1000" filter="url(#grain)" opacity="0.5" fill="none"/>
</svg>
